<?xml version="1.0" encoding="UTF-8"?>
<svg id="Layer_1" data-name="Layer 1" xmlns="http://www.w3.org/2000/svg" version="1.1" viewBox="0 0 3840 2160">
  <defs>
    <style>
      .cls-1 {
        fill: #fff;
        stroke-width: 0px;
      }
    </style>
  </defs>
  <path class="cls-1" d="M3571.8,751.6v67.1h-15.1v-67.1h-26.2v-13.3h67.5v13.3h-26.2ZM3685.1,818.7v-38.4c0-9.5,0-19.2.2-28.4h-.4c-3.2,9.5-5.9,18.8-9,28.2l-12.9,38.6h-17.4l-12.6-38.6c-3.4-9.5-6.1-18.8-9-28.2h-.4c0,9.2.2,19,.2,28.4v38.4h-14.4v-80.4h23.7l11.8,35.2c3.2,10.2,6.6,20.3,9.2,30.3h.4c3.2-10,6.1-20.1,9.5-30.3l12-35.2h23.7v80.4h-14.5Z"/>
  <path class="cls-1" d="M190.4,738.3h99.4v566.8h-99.4v-566.8h0Z"/>
  <path class="cls-1" d="M647.2,1048.5c0-63.7-32.3-85-82.4-85s-85,27.2-105.4,55.2v286.4h-89.2v-410.4h89.2v56.1c27.2-32.3,79.9-66.3,144.4-66.3s132.6,47.6,132.6,131.7v288.9h-89.2v-256.6h0Z"/>
  <path class="cls-1" d="M1636.1,1046.8c0-63.7-33.1-83.3-83.3-83.3s-84.1,27.2-105.4,55.2v286.4h-89.2v-566.8h89.2v212.4c27.2-32.3,80.7-66.3,145.3-66.3s132.6,45.9,132.6,130v290.6h-89.2v-258.3h0Z"/>
  <path class="cls-1" d="M2228.2,782.5h89.2v112.2h83.3v78.2h-83.3v215c0,28,13.6,48.4,39.1,48.4s33.2-6.8,40-14.4l21.2,67.1c-16.1,15.3-42.5,26.4-84.1,26.4-68.8,0-105.4-37.4-105.4-105.4v-427.4h0Z"/>
  <path class="cls-1" d="M2768.5,1046.8c0-63.7-33.2-83.3-83.3-83.3s-84.1,27.2-105.4,55.2v286.4h-89.2v-566.8h89.2v212.4c27.2-32.3,80.7-66.3,145.3-66.3s132.6,45.9,132.6,130v290.6h-89.2v-258.3h0Z"/>
  <path class="cls-1" d="M3441.2,1037.4c0-44.2-19.6-73.9-67.1-73.9s-77.3,28-95.2,54.4v287.2h-89.2v-267.7c0-44.2-19.6-73.9-68-73.9s-75.6,28-94.3,55.2v286.4h-89.2v-410.4h89.2v56.1c17-25.5,71.4-66.3,133.4-66.3s98.6,30.6,112.2,75.6c23.8-37.4,78.2-75.6,139.4-75.6s118.1,40.8,118.1,124.1v296.6h-89.2v-267.7h0Z"/>
  <path class="cls-1" d="M1290.7,1305.1l-143.5-230.7c56.1-20.5,103.9-72.6,103.9-158.5s-73.1-177.6-185.2-177.6h-249v566.8h99.4v-211.6h133.9l125.8,211.6h114.7,0ZM916.3,825.8h136c56.1,0,96.9,35.7,96.9,90.1s-40.8,90.1-96.9,90.1h-136v-180.2h0Z"/>
  <path class="cls-1" d="M2021.4,1332.8c-39.7,106.6-86,138.9-183.5,138.9s-34.7-2.5-47.1-5.8v-76.9c10.8,3.3,24.8,5.8,39.7,5.8,51.2,0,73.6-19,93.4-76.9l-153.8-423.2h100.8l105,312.5h1.6l108.3-312.5h97.6l-162,438.1Z"/>
</svg>