
<svg width="400px" viewBox="0 0 109.666193 9.28125" version="1.1" xmlns="http://www.w3.org/2000/svg" xmlns:xlink="http://www.w3.org/1999/xlink">
    <g fill="#02063D" fill-rule="nonzero">
        <path d="M3.95454545,0.421875 L5.52272727,0.421875 L5.52272727,6.55823864 C5.51988636,7.12073864 5.40056818,7.60440341 5.16477273,8.00923295 C4.92897727,8.4140625 4.60014205,8.72514205 4.17826705,8.94247159 C3.75639205,9.15980114 3.265625,9.26846591 2.70596591,9.26846591 C2.19460227,9.26846591 1.73508523,9.17684659 1.32741477,8.99360795 C0.919744318,8.81036932 0.596590909,8.53835227 0.357954545,8.17755682 C0.119318182,7.81676136 -1.13686838e-13,7.36789773 -1.13686838e-13,6.83096591 L1.57244318,6.83096591 C1.57528409,7.06676136 1.62713068,7.26988636 1.72798295,7.44034091 C1.82883523,7.61079545 1.96875,7.74147727 2.14772727,7.83238636 C2.32670455,7.92329545 2.53267045,7.96875 2.765625,7.96875 C3.01846591,7.96875 3.23295455,7.91548295 3.40909091,7.80894886 C3.58522727,7.70241477 3.71946023,7.54403409 3.81178977,7.33380682 C3.90411932,7.12357955 3.95170455,6.86505682 3.95454545,6.55823864 L3.95454545,0.421875 Z" id="Path"></path>
        <path d="M9.05539773,9.28125 C8.640625,9.28125 8.26775568,9.20667614 7.93678977,9.05752841 C7.60582386,8.90838068 7.34446023,8.6875 7.15269886,8.39488636 C6.9609375,8.10227273 6.86505682,7.74147727 6.86505682,7.3125 C6.86505682,6.94318182 6.93323864,6.63778409 7.06960227,6.39630682 C7.20596591,6.15482955 7.39204545,5.96164773 7.62784091,5.81676136 C7.86363636,5.671875 8.12997159,5.56178977 8.42684659,5.48650568 C8.72372159,5.41122159 9.03125,5.35653409 9.34943182,5.32244318 C9.73295455,5.28267045 10.0440341,5.24644886 10.2826705,5.21377841 C10.5213068,5.18110795 10.6953125,5.12997159 10.8046875,5.06036932 C10.9140625,4.99076705 10.96875,4.88210227 10.96875,4.734375 L10.96875,4.70880682 C10.96875,4.38778409 10.8735795,4.13920455 10.6832386,3.96306818 C10.4928977,3.78693182 10.21875,3.69886364 9.86079545,3.69886364 C9.48295455,3.69886364 9.18394886,3.78125 8.96377841,3.94602273 C8.74360795,4.11079545 8.59517045,4.30539773 8.51846591,4.52982955 L7.078125,4.32528409 C7.19176136,3.92755682 7.37926136,3.59446023 7.640625,3.32599432 C7.90198864,3.05752841 8.22159091,2.85582386 8.59943182,2.72088068 C8.97727273,2.5859375 9.39488636,2.51846591 9.85227273,2.51846591 C10.1676136,2.51846591 10.4815341,2.55539773 10.7940341,2.62926136 C11.1065341,2.703125 11.3920455,2.82457386 11.6505682,2.99360795 C11.9090909,3.16264205 12.1171875,3.39204545 12.274858,3.68181818 C12.4325284,3.97159091 12.5113636,4.33380682 12.5113636,4.76846591 L12.5113636,9.14914773 L11.0284091,9.14914773 L11.0284091,8.25 L10.9772727,8.25 C10.8835227,8.43181818 10.7521307,8.6015625 10.5830966,8.75923295 C10.4140625,8.91690341 10.2024148,9.04332386 9.94815341,9.13849432 C9.69389205,9.23366477 9.39630682,9.28125 9.05539773,9.28125 Z M9.45596591,8.14772727 C9.765625,8.14772727 10.0340909,8.0859375 10.2613636,7.96235795 C10.4886364,7.83877841 10.6640625,7.67471591 10.787642,7.47017045 C10.9112216,7.265625 10.9730114,7.04261364 10.9730114,6.80113636 L10.9730114,6.02982955 C10.9247159,6.06960227 10.8430398,6.10653409 10.727983,6.140625 C10.6129261,6.17471591 10.484375,6.20454545 10.3423295,6.23011364 C10.2002841,6.25568182 10.0596591,6.27840909 9.92045455,6.29829545 C9.78125,6.31818182 9.66051136,6.33522727 9.55823864,6.34943182 C9.328125,6.38068182 9.12215909,6.43181818 8.94034091,6.50284091 C8.75852273,6.57386364 8.61505682,6.67258523 8.50994318,6.79900568 C8.40482955,6.92542614 8.35227273,7.08806818 8.35227273,7.28693182 C8.35227273,7.57102273 8.45596591,7.78551136 8.66335227,7.93039773 C8.87073864,8.07528409 9.13494318,8.14772727 9.45596591,8.14772727 Z" id="Shape"></path>
        <polygon id="Path" points="15.4176136 9.14914773 13.5681818 2.60369318 15.140625 2.60369318 16.2911932 7.20596591 16.3508523 7.20596591 17.5269886 2.60369318 19.0823864 2.60369318 20.2585227 7.18039773 20.3224432 7.18039773 21.4559659 2.60369318 23.0326705 2.60369318 21.1789773 9.14914773 19.5724432 9.14914773 18.3451705 4.72585227 18.2556818 4.72585227 17.0284091 9.14914773"></polygon>
        <path d="M26.7911932,9.27698864 C26.1519886,9.27698864 25.5980114,9.13636364 25.1292614,8.85511364 C24.6605114,8.57386364 24.2975852,8.18039773 24.040483,7.67471591 C23.7833807,7.16903409 23.6548295,6.578125 23.6548295,5.90198864 C23.6548295,5.22585227 23.7833807,4.63352273 24.040483,4.125 C24.2975852,3.61647727 24.6605114,3.22159091 25.1292614,2.94034091 C25.5980114,2.65909091 26.1519886,2.51846591 26.7911932,2.51846591 C27.4303977,2.51846591 27.984375,2.65909091 28.453125,2.94034091 C28.921875,3.22159091 29.2848011,3.61647727 29.5419034,4.125 C29.7990057,4.63352273 29.9275568,5.22585227 29.9275568,5.90198864 C29.9275568,6.578125 29.7990057,7.16903409 29.5419034,7.67471591 C29.2848011,8.18039773 28.921875,8.57386364 28.453125,8.85511364 C27.984375,9.13636364 27.4303977,9.27698864 26.7911932,9.27698864 Z M26.7997159,8.04119318 C27.1463068,8.04119318 27.4360795,7.9453125 27.6690341,7.75355114 C27.9019886,7.56178977 28.0759943,7.30397727 28.1910511,6.98011364 C28.306108,6.65625 28.3636364,6.29545455 28.3636364,5.89772727 C28.3636364,5.49715909 28.306108,5.13423295 28.1910511,4.80894886 C28.0759943,4.48366477 27.9019886,4.22443182 27.6690341,4.03125 C27.4360795,3.83806818 27.1463068,3.74147727 26.7997159,3.74147727 C26.4446023,3.74147727 26.149858,3.83806818 25.915483,4.03125 C25.681108,4.22443182 25.506392,4.48366477 25.3913352,4.80894886 C25.2762784,5.13423295 25.21875,5.49715909 25.21875,5.89772727 C25.21875,6.29545455 25.2762784,6.65625 25.3913352,6.98011364 C25.506392,7.30397727 25.681108,7.56178977 25.915483,7.75355114 C26.149858,7.9453125 26.4446023,8.04119318 26.7997159,8.04119318 Z" id="Shape"></path>
        <path d="M31.2315341,9.14914773 L31.2315341,2.60369318 L32.7272727,2.60369318 L32.7272727,3.69460227 L32.7954545,3.69460227 C32.9147727,3.31676136 33.1200284,3.02485795 33.4112216,2.81889205 C33.7024148,2.61292614 34.0355114,2.50994318 34.4105114,2.50994318 C34.4957386,2.50994318 34.5916193,2.51349432 34.6981534,2.52059659 C34.8046875,2.52769886 34.8934659,2.53835227 34.9644886,2.55255682 L34.9644886,3.97159091 C34.8991477,3.94886364 34.7961648,3.92826705 34.6555398,3.90980114 C34.5149148,3.89133523 34.3792614,3.88210227 34.2485795,3.88210227 C33.9673295,3.88210227 33.7151989,3.94247159 33.4921875,4.06321023 C33.2691761,4.18394886 33.09375,4.35085227 32.9659091,4.56392045 C32.8380682,4.77698864 32.7741477,5.02272727 32.7741477,5.30113636 L32.7741477,9.14914773 L31.2315341,9.14914773 Z" id="Path"></path>
        <polygon id="Path" points="39.0383523 0.421875 40.9730114 0.421875 43.5639205 6.74573864 43.6661932 6.74573864 46.2571023 0.421875 48.1917614 0.421875 48.1917614 9.14914773 46.6747159 9.14914773 46.6747159 3.15340909 46.59375 3.15340909 44.1818182 9.12357955 43.0482955 9.12357955 40.6363636 3.140625 40.5553977 3.140625 40.5553977 9.14914773 39.0383523 9.14914773"></polygon>
        <path d="M51.7286932,9.28125 C51.3139205,9.28125 50.9410511,9.20667614 50.6100852,9.05752841 C50.2791193,8.90838068 50.0177557,8.6875 49.8259943,8.39488636 C49.634233,8.10227273 49.5383523,7.74147727 49.5383523,7.3125 C49.5383523,6.94318182 49.6065341,6.63778409 49.7428977,6.39630682 C49.8792614,6.15482955 50.0653409,5.96164773 50.3011364,5.81676136 C50.5369318,5.671875 50.803267,5.56178977 51.100142,5.48650568 C51.397017,5.41122159 51.7045455,5.35653409 52.0227273,5.32244318 C52.40625,5.28267045 52.7173295,5.24644886 52.9559659,5.21377841 C53.1946023,5.18110795 53.368608,5.12997159 53.477983,5.06036932 C53.587358,4.99076705 53.6420455,4.88210227 53.6420455,4.734375 L53.6420455,4.70880682 C53.6420455,4.38778409 53.546875,4.13920455 53.3565341,3.96306818 C53.1661932,3.78693182 52.8920455,3.69886364 52.5340909,3.69886364 C52.15625,3.69886364 51.8572443,3.78125 51.6370739,3.94602273 C51.4169034,4.11079545 51.2684659,4.30539773 51.1917614,4.52982955 L49.7514205,4.32528409 C49.8650568,3.92755682 50.0525568,3.59446023 50.3139205,3.32599432 C50.5752841,3.05752841 50.8948864,2.85582386 51.2727273,2.72088068 C51.6505682,2.5859375 52.0681818,2.51846591 52.5255682,2.51846591 C52.8409091,2.51846591 53.1548295,2.55539773 53.4673295,2.62926136 C53.7798295,2.703125 54.0653409,2.82457386 54.3238636,2.99360795 C54.5823864,3.16264205 54.790483,3.39204545 54.9481534,3.68181818 C55.1058239,3.97159091 55.1846591,4.33380682 55.1846591,4.76846591 L55.1846591,9.14914773 L53.7017045,9.14914773 L53.7017045,8.25 L53.6505682,8.25 C53.5568182,8.43181818 53.4254261,8.6015625 53.256392,8.75923295 C53.087358,8.91690341 52.8757102,9.04332386 52.6214489,9.13849432 C52.3671875,9.23366477 52.0696023,9.28125 51.7286932,9.28125 Z M52.1292614,8.14772727 C52.4389205,8.14772727 52.7073864,8.0859375 52.9346591,7.96235795 C53.1619318,7.83877841 53.337358,7.67471591 53.4609375,7.47017045 C53.584517,7.265625 53.6463068,7.04261364 53.6463068,6.80113636 L53.6463068,6.02982955 C53.5980114,6.06960227 53.5163352,6.10653409 53.4012784,6.140625 C53.2862216,6.17471591 53.1576705,6.20454545 53.015625,6.23011364 C52.8735795,6.25568182 52.7329545,6.27840909 52.59375,6.29829545 C52.4545455,6.31818182 52.3338068,6.33522727 52.2315341,6.34943182 C52.0014205,6.38068182 51.7954545,6.43181818 51.6136364,6.50284091 C51.4318182,6.57386364 51.2883523,6.67258523 51.1832386,6.79900568 C51.078125,6.92542614 51.0255682,7.08806818 51.0255682,7.28693182 C51.0255682,7.57102273 51.1292614,7.78551136 51.3366477,7.93039773 C51.5440341,8.07528409 51.8082386,8.14772727 52.1292614,8.14772727 Z" id="Shape"></path>
        <path d="M59.5951705,9.27698864 C58.9417614,9.27698864 58.381392,9.13352273 57.9140625,8.84659091 C57.446733,8.55965909 57.087358,8.16264205 56.8359375,7.65553977 C56.584517,7.1484375 56.4588068,6.56392045 56.4588068,5.90198864 C56.4588068,5.23721591 56.5866477,4.64985795 56.8423295,4.13991477 C57.0980114,3.62997159 57.459517,3.23224432 57.9268466,2.94673295 C58.3941761,2.66122159 58.9474432,2.51846591 59.5866477,2.51846591 C60.1178977,2.51846591 60.5887784,2.61576705 60.9992898,2.81036932 C61.4098011,3.00497159 61.7372159,3.27911932 61.9815341,3.6328125 C62.2258523,3.98650568 62.3650568,4.39914773 62.3991477,4.87073864 L60.9247159,4.87073864 C60.8650568,4.55539773 60.7237216,4.29190341 60.5007102,4.08025568 C60.2776989,3.86860795 59.9801136,3.76278409 59.6079545,3.76278409 C59.2926136,3.76278409 59.015625,3.84730114 58.7769886,4.01633523 C58.5383523,4.18536932 58.352983,4.42755682 58.2208807,4.74289773 C58.0887784,5.05823864 58.0227273,5.43607955 58.0227273,5.87642045 C58.0227273,6.32244318 58.0880682,6.70525568 58.21875,7.02485795 C58.3494318,7.34446023 58.5333807,7.59019886 58.7705966,7.76207386 C59.0078125,7.93394886 59.2869318,8.01988636 59.6079545,8.01988636 C59.8352273,8.01988636 60.0390625,7.9765625 60.2194602,7.88991477 C60.399858,7.80326705 60.5511364,7.67755682 60.6732955,7.51278409 C60.7954545,7.34801136 60.8792614,7.14772727 60.9247159,6.91193182 L62.3991477,6.91193182 C62.3622159,7.375 62.2258523,7.78480114 61.9900568,8.14133523 C61.7542614,8.49786932 61.4332386,8.77627841 61.0269886,8.9765625 C60.6207386,9.17684659 60.1434659,9.27698864 59.5951705,9.27698864 Z" id="Path"></path>
        <path d="M65.2116477,5.31392045 L65.2116477,9.14914773 L63.6690341,9.14914773 L63.6690341,0.421875 L65.1775568,0.421875 L65.1775568,3.71590909 L65.2542614,3.71590909 C65.4076705,3.34659091 65.6455966,3.0546875 65.9680398,2.84019886 C66.290483,2.62571023 66.7017045,2.51846591 67.2017045,2.51846591 C67.65625,2.51846591 68.0525568,2.61363636 68.390625,2.80397727 C68.7286932,2.99431818 68.990767,3.27272727 69.1768466,3.63920455 C69.3629261,4.00568182 69.4559659,4.453125 69.4559659,4.98153409 L69.4559659,9.14914773 L67.9133523,9.14914773 L67.9133523,5.22017045 C67.9133523,4.77982955 67.8004261,4.43678977 67.5745739,4.19105114 C67.3487216,3.9453125 67.0326705,3.82244318 66.6264205,3.82244318 C66.3536932,3.82244318 66.1100852,3.88139205 65.8955966,3.99928977 C65.681108,4.1171875 65.5134943,4.28693182 65.3927557,4.50852273 C65.272017,4.73011364 65.2116477,4.99857955 65.2116477,5.31392045 Z" id="Path"></path>
        <path d="M71.0241477,9.14914773 L71.0241477,2.60369318 L72.5667614,2.60369318 L72.5667614,9.14914773 L71.0241477,9.14914773 Z M71.7997159,1.67471591 C71.5553977,1.67471591 71.3451705,1.59303977 71.1690341,1.4296875 C70.9928977,1.26633523 70.9048295,1.06960227 70.9048295,0.839488636 C70.9048295,0.606534091 70.9928977,0.408380682 71.1690341,0.245028409 C71.3451705,0.0816761364 71.5553977,0 71.7997159,0 C72.046875,0 72.2578125,0.0816761364 72.4325284,0.245028409 C72.6072443,0.408380682 72.6946023,0.606534091 72.6946023,0.839488636 C72.6946023,1.06960227 72.6072443,1.26633523 72.4325284,1.4296875 C72.2578125,1.59303977 72.046875,1.67471591 71.7997159,1.67471591 Z" id="Shape"></path>
        <path d="M75.6946023,5.31392045 L75.6946023,9.14914773 L74.1519886,9.14914773 L74.1519886,2.60369318 L75.6264205,2.60369318 L75.6264205,3.71590909 L75.703125,3.71590909 C75.8536932,3.34943182 76.0944602,3.05823864 76.4254261,2.84232955 C76.756392,2.62642045 77.1661932,2.51846591 77.6548295,2.51846591 C78.1065341,2.51846591 78.5007102,2.61505682 78.837358,2.80823864 C79.1740057,3.00142045 79.4353693,3.28125 79.6214489,3.64772727 C79.8075284,4.01420455 79.8991477,4.45880682 79.8963068,4.98153409 L79.8963068,9.14914773 L78.3536932,9.14914773 L78.3536932,5.22017045 C78.3536932,4.78267045 78.240767,4.44034091 78.0149148,4.19318182 C77.7890625,3.94602273 77.4772727,3.82244318 77.0795455,3.82244318 C76.8096591,3.82244318 76.5703125,3.88139205 76.3615057,3.99928977 C76.1526989,4.1171875 75.9893466,4.28693182 75.8714489,4.50852273 C75.7535511,4.73011364 75.6946023,4.99857955 75.6946023,5.31392045 Z" id="Path"></path>
        <path d="M84.3664773,9.27698864 C83.7102273,9.27698864 83.1441761,9.13991477 82.6683239,8.86576705 C82.1924716,8.59161932 81.8267045,8.20241477 81.5710227,7.69815341 C81.3153409,7.19389205 81.1875,6.59943182 81.1875,5.91477273 C81.1875,5.24147727 81.3160511,4.64985795 81.5731534,4.13991477 C81.8302557,3.62997159 82.1903409,3.23224432 82.6534091,2.94673295 C83.1164773,2.66122159 83.6605114,2.51846591 84.2855114,2.51846591 C84.6889205,2.51846591 85.0703125,2.58309659 85.4296875,2.71235795 C85.7890625,2.84161932 86.1072443,3.04119318 86.384233,3.31107955 C86.6612216,3.58096591 86.8792614,3.92400568 87.0383523,4.34019886 C87.1974432,4.75639205 87.2769886,5.25142045 87.2769886,5.82528409 L87.2769886,6.29829545 L81.9119318,6.29829545 L81.9119318,5.25852273 L85.7982955,5.25852273 C85.7954545,4.96306818 85.7315341,4.69957386 85.6065341,4.46803977 C85.4815341,4.23650568 85.3075284,4.05397727 85.084517,3.92045455 C84.8615057,3.78693182 84.6022727,3.72017045 84.3068182,3.72017045 C83.9914773,3.72017045 83.7144886,3.79616477 83.4758523,3.94815341 C83.2372159,4.10014205 83.0518466,4.29900568 82.9197443,4.54474432 C82.787642,4.79048295 82.7201705,5.05965909 82.7173295,5.35227273 L82.7173295,6.25994318 C82.7173295,6.640625 82.7869318,6.96661932 82.9261364,7.23792614 C83.0653409,7.50923295 83.2599432,7.71661932 83.5099432,7.86008523 C83.7599432,8.00355114 84.0525568,8.07528409 84.3877841,8.07528409 C84.6122159,8.07528409 84.8153409,8.04332386 84.9971591,7.97940341 C85.1789773,7.91548295 85.3366477,7.82102273 85.4701705,7.69602273 C85.6036932,7.57102273 85.7045455,7.41619318 85.7727273,7.23153409 L87.2130682,7.39346591 C87.1221591,7.77414773 86.9495739,8.10582386 86.6953125,8.38849432 C86.4410511,8.67116477 86.1164773,8.88991477 85.7215909,9.04474432 C85.3267045,9.19957386 84.875,9.27698864 84.3664773,9.27698864 Z" id="Path"></path>
        <path d="M99.0980114,3.36647727 L97.5042614,3.36647727 C97.4588068,3.10511364 97.375,2.87286932 97.2528409,2.66974432 C97.1306818,2.46661932 96.9786932,2.29403409 96.796875,2.15198864 C96.6150568,2.00994318 96.4083807,1.90269886 96.1768466,1.83025568 C95.9453125,1.7578125 95.6960227,1.72159091 95.4289773,1.72159091 C94.9545455,1.72159091 94.5340909,1.84019886 94.1676136,2.07741477 C93.8011364,2.31463068 93.5142045,2.66122159 93.3068182,3.1171875 C93.0994318,3.57315341 92.9957386,4.12926136 92.9957386,4.78551136 C92.9957386,5.453125 93.100142,6.01491477 93.3089489,6.47088068 C93.5177557,6.92684659 93.8046875,7.27059659 94.1697443,7.50213068 C94.5348011,7.73366477 94.953125,7.84943182 95.4247159,7.84943182 C95.6860795,7.84943182 95.931108,7.81463068 96.1598011,7.74502841 C96.3884943,7.67542614 96.5944602,7.57244318 96.7776989,7.43607955 C96.9609375,7.29971591 97.115767,7.13210227 97.2421875,6.93323864 C97.368608,6.734375 97.4559659,6.50710227 97.5042614,6.25142045 L99.0980114,6.25994318 C99.0383523,6.67471591 98.9098011,7.06392045 98.712358,7.42755682 C98.5149148,7.79119318 98.2571023,8.11150568 97.9389205,8.38849432 C97.6207386,8.66548295 97.2485795,8.88139205 96.8224432,9.03622159 C96.3963068,9.19105114 95.9232955,9.26846591 95.4034091,9.26846591 C94.6363636,9.26846591 93.9517045,9.09090909 93.3494318,8.73579545 C92.7471591,8.38068182 92.2727273,7.86789773 91.9261364,7.19744318 C91.5795455,6.52698864 91.40625,5.72301136 91.40625,4.78551136 C91.40625,3.84517045 91.5809659,3.04048295 91.9303977,2.37144886 C92.2798295,1.70241477 92.7556818,1.19034091 93.3579545,0.835227273 C93.9602273,0.480113636 94.6420455,0.302556818 95.4034091,0.302556818 C95.8892045,0.302556818 96.3409091,0.370738636 96.7585227,0.507102273 C97.1761364,0.643465909 97.5482955,0.843039773 97.875,1.10582386 C98.2017045,1.36860795 98.4708807,1.68963068 98.6825284,2.06889205 C98.8941761,2.44815341 99.0326705,2.88068182 99.0980114,3.36647727 Z" id="Path"></path>
        <path d="M103.338068,9.27698864 C102.698864,9.27698864 102.144886,9.13636364 101.676136,8.85511364 C101.207386,8.57386364 100.84446,8.18039773 100.587358,7.67471591 C100.330256,7.16903409 100.201705,6.578125 100.201705,5.90198864 C100.201705,5.22585227 100.330256,4.63352273 100.587358,4.125 C100.84446,3.61647727 101.207386,3.22159091 101.676136,2.94034091 C102.144886,2.65909091 102.698864,2.51846591 103.338068,2.51846591 C103.977273,2.51846591 104.53125,2.65909091 105,2.94034091 C105.46875,3.22159091 105.831676,3.61647727 106.088778,4.125 C106.345881,4.63352273 106.474432,5.22585227 106.474432,5.90198864 C106.474432,6.578125 106.345881,7.16903409 106.088778,7.67471591 C105.831676,8.18039773 105.46875,8.57386364 105,8.85511364 C104.53125,9.13636364 103.977273,9.27698864 103.338068,9.27698864 Z M103.346591,8.04119318 C103.693182,8.04119318 103.982955,7.9453125 104.215909,7.75355114 C104.448864,7.56178977 104.622869,7.30397727 104.737926,6.98011364 C104.852983,6.65625 104.910511,6.29545455 104.910511,5.89772727 C104.910511,5.49715909 104.852983,5.13423295 104.737926,4.80894886 C104.622869,4.48366477 104.448864,4.22443182 104.215909,4.03125 C103.982955,3.83806818 103.693182,3.74147727 103.346591,3.74147727 C102.991477,3.74147727 102.696733,3.83806818 102.462358,4.03125 C102.227983,4.22443182 102.053267,4.48366477 101.93821,4.80894886 C101.823153,5.13423295 101.765625,5.49715909 101.765625,5.89772727 C101.765625,6.29545455 101.823153,6.65625 101.93821,6.98011364 C102.053267,7.30397727 102.227983,7.56178977 102.462358,7.75355114 C102.696733,7.9453125 102.991477,8.04119318 103.346591,8.04119318 Z" id="Shape"></path>
        <path d="M108.728693,9.24289773 C108.47017,9.24289773 108.24858,9.15198864 108.06392,8.97017045 C107.879261,8.78835227 107.788352,8.56676136 107.791193,8.30539773 C107.788352,8.04971591 107.879261,7.83096591 108.06392,7.64914773 C108.24858,7.46732955 108.47017,7.37642045 108.728693,7.37642045 C108.978693,7.37642045 109.196733,7.46732955 109.382812,7.64914773 C109.568892,7.83096591 109.663352,8.04971591 109.666193,8.30539773 C109.663352,8.47869318 109.618608,8.63636364 109.53196,8.77840909 C109.445312,8.92045455 109.331676,9.03338068 109.191051,9.1171875 C109.050426,9.20099432 108.896307,9.24289773 108.728693,9.24289773 Z" id="Path"></path>
    </g>
</svg>